999
"DXF R12 Output" (www.mydxf.blogspot.com)
 0 
SECTION
 2 
HEADER
 9 
$ACADVER
 1 
AC1009
 9 
$EXTMIN
 10 
 0 
 20 
 0 
 9 
$EXTMAX
 10 
 8.5 
 20 
 11 
 0 
ENDSEC
 0 
SECTION
 2 
ENTITIES
0
LINE
8
Layer 1
10
25.400000
20
-55.150000
11
15.875000
21
-55.150000
0
LINE
8
Layer 1
10
15.875000
20
-55.150000
11
-5.210000
21
-55.150000
0
LINE
8
Layer 1
10
-5.210000
20
-55.150000
11
-15.875000
21
-55.150000
0
LINE
8
Layer 1
10
-15.875000
20
-55.150000
11
-25.400000
21
-55.150000
0
LINE
8
Layer 1
10
-25.400000
20
-55.150000
11
-25.400000
21
-30.385000
0
LINE
8
Layer 1
10
-25.400000
20
-30.385000
11
-35.309000
21
-30.385000
0
LINE
8
Layer 1
10
-35.309000
20
-30.385000
11
-73.409000
21
-30.385000
0
LINE
8
Layer 1
10
-73.409000
20
-30.385000
11
-111.509000
21
-30.385000
0
LINE
8
Layer 1
10
-111.509000
20
-30.385000
11
-123.825000
21
-30.385000
0
LINE
8
Layer 1
10
-123.825000
20
-30.385000
11
-123.825000
21
1.365000
0
LINE
8
Layer 1
10
-123.825000
20
1.365000
11
-123.825000
21
36.290000
0
LINE
8
Layer 1
10
-123.825000
20
36.290000
11
-111.509000
21
36.290000
0
LINE
8
Layer 1
10
-111.509000
20
36.290000
11
-104.392000
21
36.290000
0
LINE
8
Layer 1
10
-104.392000
20
36.290000
11
-92.075000
21
36.290000
0
LINE
8
Layer 1
10
-92.075000
20
36.290000
11
-31.750000
21
8.641040
0
LINE
8
Layer 1
10
-31.750000
20
8.641040
11
-29.729500
21
7.715000
0
LINE
8
Layer 1
10
-29.729500
20
7.715000
11
-25.400000
21
7.715000
0
LINE
8
Layer 1
10
-25.400000
20
7.715000
11
-25.400000
21
26.130000
0
LINE
8
Layer 1
10
-25.400000
20
26.130000
11
-15.875000
21
26.130000
0
LINE
8
Layer 1
10
-15.875000
20
26.130000
11
-5.210000
21
26.130000
0
LINE
8
Layer 1
10
-5.210000
20
26.130000
11
5.210000
21
26.130000
0
LINE
8
Layer 1
10
5.210000
20
26.130000
11
15.875000
21
26.130000
0
LINE
8
Layer 1
10
15.875000
20
26.130000
11
25.400000
21
26.130000
0
LINE
8
Layer 1
10
25.400000
20
26.130000
11
25.400000
21
7.715000
0
LINE
8
Layer 1
10
25.400000
20
7.715000
11
29.729500
21
7.715000
0
LINE
8
Layer 1
10
29.729500
20
7.715000
11
31.750000
21
8.641040
0
LINE
8
Layer 1
10
31.750000
20
8.641040
11
92.075000
21
36.290000
0
LINE
8
Layer 1
10
92.075000
20
36.290000
11
104.392000
21
36.290000
0
LINE
8
Layer 1
10
104.392000
20
36.290000
11
111.509000
21
36.290000
0
LINE
8
Layer 1
10
111.509000
20
36.290000
11
123.825000
21
36.290000
0
LINE
8
Layer 1
10
123.825000
20
36.290000
11
123.825000
21
20.031000
0
LINE
8
Layer 1
10
123.825000
20
20.031000
11
123.825000
21
1.365000
0
LINE
8
Layer 1
10
123.825000
20
1.365000
11
123.825000
21
-18.069000
0
LINE
8
Layer 1
10
123.825000
20
-18.069000
11
123.825000
21
-30.385000
0
LINE
8
Layer 1
10
123.825000
20
-30.385000
11
28.192000
21
-30.385000
0
LINE
8
Layer 1
10
28.192000
20
-30.385000
11
25.400000
21
-30.385000
0
LINE
8
Layer 1
10
25.400000
20
-30.385000
11
25.400000
21
-55.150000
0
LINE
8
Layer 1
10
-1.610000
20
-19.465000
11
0.000000
21
-19.720000
0
LINE
8
Layer 1
10
0.000000
20
-19.720000
11
1.610000
21
-19.465000
0
LINE
8
Layer 1
10
1.610000
20
-19.465000
11
3.062000
21
-18.725000
0
LINE
8
Layer 1
10
3.062000
20
-18.725000
11
4.215000
21
-17.572000
0
LINE
8
Layer 1
10
4.215000
20
-17.572000
11
4.955000
21
-16.120000
0
LINE
8
Layer 1
10
4.955000
20
-16.120000
11
5.210000
21
-14.510000
0
LINE
8
Layer 1
10
5.210000
20
-14.510000
11
4.955000
21
-12.900000
0
LINE
8
Layer 1
10
4.955000
20
-12.900000
11
4.215000
21
-11.448000
0
LINE
8
Layer 1
10
4.215000
20
-11.448000
11
3.062000
21
-10.295000
0
LINE
8
Layer 1
10
3.062000
20
-10.295000
11
1.610000
21
-9.555000
0
LINE
8
Layer 1
10
1.610000
20
-9.555000
11
0.000000
21
-9.301000
0
LINE
8
Layer 1
10
0.000000
20
-9.301000
11
-1.610000
21
-9.555000
0
LINE
8
Layer 1
10
-1.610000
20
-9.555000
11
-3.062000
21
-10.295000
0
LINE
8
Layer 1
10
-3.062000
20
-10.295000
11
-4.215000
21
-11.448000
0
LINE
8
Layer 1
10
-4.215000
20
-11.448000
11
-4.955000
21
-12.900000
0
LINE
8
Layer 1
10
-4.955000
20
-12.900000
11
-5.210000
21
-14.510000
0
LINE
8
Layer 1
10
-5.210000
20
-14.510000
11
-4.955000
21
-16.120000
0
LINE
8
Layer 1
10
-4.955000
20
-16.120000
11
-4.215000
21
-17.572000
0
LINE
8
Layer 1
10
-4.215000
20
-17.572000
11
-3.062000
21
-18.725000
0
LINE
8
Layer 1
10
-3.062000
20
-18.725000
11
-1.610000
21
-19.465000
0
LINE
8
Layer 1
10
104.426000
20
23.808000
11
104.392000
21
23.590000
0
LINE
8
Layer 1
10
104.392000
20
23.590000
11
104.566000
21
22.490000
0
LINE
8
Layer 1
10
104.566000
20
22.490000
11
105.071000
21
21.498000
0
LINE
8
Layer 1
10
105.071000
20
21.498000
11
105.858000
21
20.711000
0
LINE
8
Layer 1
10
105.858000
20
20.711000
11
106.850000
21
20.206000
0
LINE
8
Layer 1
10
106.850000
20
20.206000
11
107.950000
21
20.031000
0
LINE
8
Layer 1
10
107.950000
20
20.031000
11
109.050000
21
20.206000
0
LINE
8
Layer 1
10
109.050000
20
20.206000
11
110.042000
21
20.711000
0
LINE
8
Layer 1
10
110.042000
20
20.711000
11
110.829000
21
21.498000
0
LINE
8
Layer 1
10
110.829000
20
21.498000
11
111.334000
21
22.490000
0
LINE
8
Layer 1
10
111.334000
20
22.490000
11
111.509000
21
23.590000
0
LINE
8
Layer 1
10
111.509000
20
23.590000
11
111.474000
21
23.808000
0
LINE
8
Layer 1
10
111.474000
20
23.808000
11
111.334000
21
24.690000
0
LINE
8
Layer 1
10
111.334000
20
24.690000
11
110.829000
21
25.682000
0
LINE
8
Layer 1
10
110.829000
20
25.682000
11
110.042000
21
26.469000
0
LINE
8
Layer 1
10
110.042000
20
26.469000
11
109.050000
21
26.974000
0
LINE
8
Layer 1
10
109.050000
20
26.974000
11
107.950000
21
27.148000
0
LINE
8
Layer 1
10
107.950000
20
27.148000
11
106.850000
21
26.974000
0
LINE
8
Layer 1
10
106.850000
20
26.974000
11
105.858000
21
26.469000
0
LINE
8
Layer 1
10
105.858000
20
26.469000
11
105.071000
21
25.682000
0
LINE
8
Layer 1
10
105.071000
20
25.682000
11
104.566000
21
24.690000
0
LINE
8
Layer 1
10
104.566000
20
24.690000
11
104.426000
21
23.808000
0
LINE
8
Layer 1
10
35.134000
20
-13.410000
11
34.953800
21
-13.056000
0
LINE
8
Layer 1
10
34.953800
20
-13.056000
11
34.629000
21
-12.418000
0
LINE
8
Layer 1
10
34.629000
20
-12.418000
11
33.842000
21
-11.631000
0
LINE
8
Layer 1
10
33.842000
20
-11.631000
11
32.850000
21
-11.126000
0
LINE
8
Layer 1
10
32.850000
20
-11.126000
11
31.750000
21
-10.952000
0
LINE
8
Layer 1
10
31.750000
20
-10.952000
11
30.650000
21
-11.126000
0
LINE
8
Layer 1
10
30.650000
20
-11.126000
11
29.658000
21
-11.631000
0
LINE
8
Layer 1
10
29.658000
20
-11.631000
11
28.871000
21
-12.418000
0
LINE
8
Layer 1
10
28.871000
20
-12.418000
11
28.546200
21
-13.056000
0
LINE
8
Layer 1
10
28.546200
20
-13.056000
11
28.366000
21
-13.410000
0
LINE
8
Layer 1
10
28.366000
20
-13.410000
11
28.192000
21
-14.510000
0
LINE
8
Layer 1
10
28.192000
20
-14.510000
11
28.366000
21
-15.610000
0
LINE
8
Layer 1
10
28.366000
20
-15.610000
11
28.871000
21
-16.602000
0
LINE
8
Layer 1
10
28.871000
20
-16.602000
11
29.658000
21
-17.389000
0
LINE
8
Layer 1
10
29.658000
20
-17.389000
11
30.650000
21
-17.894000
0
LINE
8
Layer 1
10
30.650000
20
-17.894000
11
31.750000
21
-18.069000
0
LINE
8
Layer 1
10
31.750000
20
-18.069000
11
32.850000
21
-17.894000
0
LINE
8
Layer 1
10
32.850000
20
-17.894000
11
33.842000
21
-17.389000
0
LINE
8
Layer 1
10
33.842000
20
-17.389000
11
34.629000
21
-16.602000
0
LINE
8
Layer 1
10
34.629000
20
-16.602000
11
35.134000
21
-15.610000
0
LINE
8
Layer 1
10
35.134000
20
-15.610000
11
35.309000
21
-14.510000
0
LINE
8
Layer 1
10
35.309000
20
-14.510000
11
35.134000
21
-13.410000
0
LINE
8
Layer 1
10
73.234000
20
-13.410000
11
73.053800
21
-13.056000
0
LINE
8
Layer 1
10
73.053800
20
-13.056000
11
72.729000
21
-12.418000
0
LINE
8
Layer 1
10
72.729000
20
-12.418000
11
71.942000
21
-11.631000
0
LINE
8
Layer 1
10
71.942000
20
-11.631000
11
70.950000
21
-11.126000
0
LINE
8
Layer 1
10
70.950000
20
-11.126000
11
69.850000
21
-10.952000
0
LINE
8
Layer 1
10
69.850000
20
-10.952000
11
68.750000
21
-11.126000
0
LINE
8
Layer 1
10
68.750000
20
-11.126000
11
67.758000
21
-11.631000
0
LINE
8
Layer 1
10
67.758000
20
-11.631000
11
66.971000
21
-12.418000
0
LINE
8
Layer 1
10
66.971000
20
-12.418000
11
66.646200
21
-13.056000
0
LINE
8
Layer 1
10
66.646200
20
-13.056000
11
66.466000
21
-13.410000
0
LINE
8
Layer 1
10
66.466000
20
-13.410000
11
66.292000
21
-14.510000
0
LINE
8
Layer 1
10
66.292000
20
-14.510000
11
66.466000
21
-15.610000
0
LINE
8
Layer 1
10
66.466000
20
-15.610000
11
66.971000
21
-16.602000
0
LINE
8
Layer 1
10
66.971000
20
-16.602000
11
67.758000
21
-17.389000
0
LINE
8
Layer 1
10
67.758000
20
-17.389000
11
68.750000
21
-17.894000
0
LINE
8
Layer 1
10
68.750000
20
-17.894000
11
69.850000
21
-18.069000
0
LINE
8
Layer 1
10
69.850000
20
-18.069000
11
70.950000
21
-17.894000
0
LINE
8
Layer 1
10
70.950000
20
-17.894000
11
71.942000
21
-17.389000
0
LINE
8
Layer 1
10
71.942000
20
-17.389000
11
72.729000
21
-16.602000
0
LINE
8
Layer 1
10
72.729000
20
-16.602000
11
73.234000
21
-15.610000
0
LINE
8
Layer 1
10
73.234000
20
-15.610000
11
73.409000
21
-14.510000
0
LINE
8
Layer 1
10
73.409000
20
-14.510000
11
73.234000
21
-13.410000
0
LINE
8
Layer 1
10
111.334000
20
-13.410000
11
111.154000
21
-13.056000
0
LINE
8
Layer 1
10
111.154000
20
-13.056000
11
110.829000
21
-12.418000
0
LINE
8
Layer 1
10
110.829000
20
-12.418000
11
110.042000
21
-11.631000
0
LINE
8
Layer 1
10
110.042000
20
-11.631000
11
109.050000
21
-11.126000
0
LINE
8
Layer 1
10
109.050000
20
-11.126000
11
107.950000
21
-10.952000
0
LINE
8
Layer 1
10
107.950000
20
-10.952000
11
106.850000
21
-11.126000
0
LINE
8
Layer 1
10
106.850000
20
-11.126000
11
105.858000
21
-11.631000
0
LINE
8
Layer 1
10
105.858000
20
-11.631000
11
105.071000
21
-12.418000
0
LINE
8
Layer 1
10
105.071000
20
-12.418000
11
104.746000
21
-13.056000
0
LINE
8
Layer 1
10
104.746000
20
-13.056000
11
104.566000
21
-13.410000
0
LINE
8
Layer 1
10
104.566000
20
-13.410000
11
104.392000
21
-14.510000
0
LINE
8
Layer 1
10
104.392000
20
-14.510000
11
104.566000
21
-15.610000
0
LINE
8
Layer 1
10
104.566000
20
-15.610000
11
105.071000
21
-16.602000
0
LINE
8
Layer 1
10
105.071000
20
-16.602000
11
105.858000
21
-17.389000
0
LINE
8
Layer 1
10
105.858000
20
-17.389000
11
106.850000
21
-17.894000
0
LINE
8
Layer 1
10
106.850000
20
-17.894000
11
107.950000
21
-18.069000
0
LINE
8
Layer 1
10
107.950000
20
-18.069000
11
109.050000
21
-17.894000
0
LINE
8
Layer 1
10
109.050000
20
-17.894000
11
110.042000
21
-17.389000
0
LINE
8
Layer 1
10
110.042000
20
-17.389000
11
110.829000
21
-16.602000
0
LINE
8
Layer 1
10
110.829000
20
-16.602000
11
111.334000
21
-15.610000
0
LINE
8
Layer 1
10
111.334000
20
-15.610000
11
111.509000
21
-14.510000
0
LINE
8
Layer 1
10
111.509000
20
-14.510000
11
111.334000
21
-13.410000
0
LINE
8
Layer 1
10
-109.050000
20
20.206000
11
-107.950000
21
20.031000
0
LINE
8
Layer 1
10
-107.950000
20
20.031000
11
-106.850000
21
20.206000
0
LINE
8
Layer 1
10
-106.850000
20
20.206000
11
-105.858000
21
20.711000
0
LINE
8
Layer 1
10
-105.858000
20
20.711000
11
-105.071000
21
21.498000
0
LINE
8
Layer 1
10
-105.071000
20
21.498000
11
-104.566000
21
22.490000
0
LINE
8
Layer 1
10
-104.566000
20
22.490000
11
-104.392000
21
23.590000
0
LINE
8
Layer 1
10
-104.392000
20
23.590000
11
-104.426000
21
23.808000
0
LINE
8
Layer 1
10
-104.426000
20
23.808000
11
-104.566000
21
24.690000
0
LINE
8
Layer 1
10
-104.566000
20
24.690000
11
-105.071000
21
25.682000
0
LINE
8
Layer 1
10
-105.071000
20
25.682000
11
-105.858000
21
26.469000
0
LINE
8
Layer 1
10
-105.858000
20
26.469000
11
-106.850000
21
26.974000
0
LINE
8
Layer 1
10
-106.850000
20
26.974000
11
-107.950000
21
27.148000
0
LINE
8
Layer 1
10
-107.950000
20
27.148000
11
-109.050000
21
26.974000
0
LINE
8
Layer 1
10
-109.050000
20
26.974000
11
-110.042000
21
26.469000
0
LINE
8
Layer 1
10
-110.042000
20
26.469000
11
-110.829000
21
25.682000
0
LINE
8
Layer 1
10
-110.829000
20
25.682000
11
-111.334000
21
24.690000
0
LINE
8
Layer 1
10
-111.334000
20
24.690000
11
-111.474000
21
23.808000
0
LINE
8
Layer 1
10
-111.474000
20
23.808000
11
-111.509000
21
23.590000
0
LINE
8
Layer 1
10
-111.509000
20
23.590000
11
-111.334000
21
22.490000
0
LINE
8
Layer 1
10
-111.334000
20
22.490000
11
-110.829000
21
21.498000
0
LINE
8
Layer 1
10
-110.829000
20
21.498000
11
-110.042000
21
20.711000
0
LINE
8
Layer 1
10
-110.042000
20
20.711000
11
-109.050000
21
20.206000
0
LINE
8
Layer 1
10
-32.850000
20
-17.894000
11
-31.750000
21
-18.069000
0
LINE
8
Layer 1
10
-31.750000
20
-18.069000
11
-30.650000
21
-17.894000
0
LINE
8
Layer 1
10
-30.650000
20
-17.894000
11
-29.658000
21
-17.389000
0
LINE
8
Layer 1
10
-29.658000
20
-17.389000
11
-28.871000
21
-16.602000
0
LINE
8
Layer 1
10
-28.871000
20
-16.602000
11
-28.366000
21
-15.610000
0
LINE
8
Layer 1
10
-28.366000
20
-15.610000
11
-28.192000
21
-14.510000
0
LINE
8
Layer 1
10
-28.192000
20
-14.510000
11
-28.366000
21
-13.410000
0
LINE
8
Layer 1
10
-28.366000
20
-13.410000
11
-28.546200
21
-13.056000
0
LINE
8
Layer 1
10
-28.546200
20
-13.056000
11
-28.871000
21
-12.418000
0
LINE
8
Layer 1
10
-28.871000
20
-12.418000
11
-29.658000
21
-11.631000
0
LINE
8
Layer 1
10
-29.658000
20
-11.631000
11
-30.650000
21
-11.126000
0
LINE
8
Layer 1
10
-30.650000
20
-11.126000
11
-31.750000
21
-10.952000
0
LINE
8
Layer 1
10
-31.750000
20
-10.952000
11
-32.850000
21
-11.126000
0
LINE
8
Layer 1
10
-32.850000
20
-11.126000
11
-33.842000
21
-11.631000
0
LINE
8
Layer 1
10
-33.842000
20
-11.631000
11
-34.629000
21
-12.418000
0
LINE
8
Layer 1
10
-34.629000
20
-12.418000
11
-34.953800
21
-13.056000
0
LINE
8
Layer 1
10
-34.953800
20
-13.056000
11
-35.134000
21
-13.410000
0
LINE
8
Layer 1
10
-35.134000
20
-13.410000
11
-35.309000
21
-14.510000
0
LINE
8
Layer 1
10
-35.309000
20
-14.510000
11
-35.134000
21
-15.610000
0
LINE
8
Layer 1
10
-35.134000
20
-15.610000
11
-34.629000
21
-16.602000
0
LINE
8
Layer 1
10
-34.629000
20
-16.602000
11
-33.842000
21
-17.389000
0
LINE
8
Layer 1
10
-33.842000
20
-17.389000
11
-32.850000
21
-17.894000
0
LINE
8
Layer 1
10
-70.950000
20
-17.894000
11
-69.850000
21
-18.069000
0
LINE
8
Layer 1
10
-69.850000
20
-18.069000
11
-68.750000
21
-17.894000
0
LINE
8
Layer 1
10
-68.750000
20
-17.894000
11
-67.758000
21
-17.389000
0
LINE
8
Layer 1
10
-67.758000
20
-17.389000
11
-66.971000
21
-16.602000
0
LINE
8
Layer 1
10
-66.971000
20
-16.602000
11
-66.466000
21
-15.610000
0
LINE
8
Layer 1
10
-66.466000
20
-15.610000
11
-66.292000
21
-14.510000
0
LINE
8
Layer 1
10
-66.292000
20
-14.510000
11
-66.466000
21
-13.410000
0
LINE
8
Layer 1
10
-66.466000
20
-13.410000
11
-66.646200
21
-13.056000
0
LINE
8
Layer 1
10
-66.646200
20
-13.056000
11
-66.971000
21
-12.418000
0
LINE
8
Layer 1
10
-66.971000
20
-12.418000
11
-67.758000
21
-11.631000
0
LINE
8
Layer 1
10
-67.758000
20
-11.631000
11
-68.750000
21
-11.126000
0
LINE
8
Layer 1
10
-68.750000
20
-11.126000
11
-69.850000
21
-10.952000
0
LINE
8
Layer 1
10
-69.850000
20
-10.952000
11
-70.950000
21
-11.126000
0
LINE
8
Layer 1
10
-70.950000
20
-11.126000
11
-71.942000
21
-11.631000
0
LINE
8
Layer 1
10
-71.942000
20
-11.631000
11
-72.729000
21
-12.418000
0
LINE
8
Layer 1
10
-72.729000
20
-12.418000
11
-73.053800
21
-13.056000
0
LINE
8
Layer 1
10
-73.053800
20
-13.056000
11
-73.234000
21
-13.410000
0
LINE
8
Layer 1
10
-73.234000
20
-13.410000
11
-73.409000
21
-14.510000
0
LINE
8
Layer 1
10
-73.409000
20
-14.510000
11
-73.234000
21
-15.610000
0
LINE
8
Layer 1
10
-73.234000
20
-15.610000
11
-72.729000
21
-16.602000
0
LINE
8
Layer 1
10
-72.729000
20
-16.602000
11
-71.942000
21
-17.389000
0
LINE
8
Layer 1
10
-71.942000
20
-17.389000
11
-70.950000
21
-17.894000
0
LINE
8
Layer 1
10
-109.050000
20
-17.894000
11
-107.950000
21
-18.069000
0
LINE
8
Layer 1
10
-107.950000
20
-18.069000
11
-106.850000
21
-17.894000
0
LINE
8
Layer 1
10
-106.850000
20
-17.894000
11
-105.858000
21
-17.389000
0
LINE
8
Layer 1
10
-105.858000
20
-17.389000
11
-105.071000
21
-16.602000
0
LINE
8
Layer 1
10
-105.071000
20
-16.602000
11
-104.566000
21
-15.610000
0
LINE
8
Layer 1
10
-104.566000
20
-15.610000
11
-104.392000
21
-14.510000
0
LINE
8
Layer 1
10
-104.392000
20
-14.510000
11
-104.566000
21
-13.410000
0
LINE
8
Layer 1
10
-104.566000
20
-13.410000
11
-104.746000
21
-13.056000
0
LINE
8
Layer 1
10
-104.746000
20
-13.056000
11
-105.071000
21
-12.418000
0
LINE
8
Layer 1
10
-105.071000
20
-12.418000
11
-105.858000
21
-11.631000
0
LINE
8
Layer 1
10
-105.858000
20
-11.631000
11
-106.850000
21
-11.126000
0
LINE
8
Layer 1
10
-106.850000
20
-11.126000
11
-107.950000
21
-10.952000
0
LINE
8
Layer 1
10
-107.950000
20
-10.952000
11
-109.050000
21
-11.126000
0
LINE
8
Layer 1
10
-109.050000
20
-11.126000
11
-110.042000
21
-11.631000
0
LINE
8
Layer 1
10
-110.042000
20
-11.631000
11
-110.829000
21
-12.418000
0
LINE
8
Layer 1
10
-110.829000
20
-12.418000
11
-111.154000
21
-13.056000
0
LINE
8
Layer 1
10
-111.154000
20
-13.056000
11
-111.334000
21
-13.410000
0
LINE
8
Layer 1
10
-111.334000
20
-13.410000
11
-111.509000
21
-14.510000
0
LINE
8
Layer 1
10
-111.509000
20
-14.510000
11
-111.334000
21
-15.610000
0
LINE
8
Layer 1
10
-111.334000
20
-15.610000
11
-110.829000
21
-16.602000
0
LINE
8
Layer 1
10
-110.829000
20
-16.602000
11
-110.042000
21
-17.389000
0
LINE
8
Layer 1
10
-110.042000
20
-17.389000
11
-109.050000
21
-17.894000
0
LINE
8
Layer 1
10
-109.050000
20
-17.894000
11
-109.050000
21
-17.894000
 0 
ENDSEC
 0 
EOF