999
"DXF R12 Output" (www.mydxf.blogspot.com)
 0 
SECTION
 2 
HEADER
 9 
$ACADVER
 1 
AC1009
 9 
$EXTMIN
 10 
 0 
 20 
 0 
 9 
$EXTMAX
 10 
 8.5 
 20 
 11 
 0 
ENDSEC
 0 
SECTION
 2 
ENTITIES
0
LINE
8
Layer 1
10
88.900000
20
32.162000
11
76.200000
21
0.412002
0
LINE
8
Layer 1
10
76.200000
20
0.412002
11
60.196000
21
0.412002
0
LINE
8
Layer 1
10
60.196000
20
0.412002
11
41.275000
21
0.412002
0
LINE
8
Layer 1
10
41.275000
20
0.412002
11
28.575000
21
32.162000
0
LINE
8
Layer 1
10
28.575000
20
32.162000
11
-28.575000
21
32.162000
0
LINE
8
Layer 1
10
-28.575000
20
32.162000
11
-41.275000
21
0.412002
0
LINE
8
Layer 1
10
-41.275000
20
0.412002
11
-66.805000
21
0.412002
0
LINE
8
Layer 1
10
-66.805000
20
0.412002
11
-76.200000
21
0.412002
0
LINE
8
Layer 1
10
-76.200000
20
0.412002
11
-88.900000
21
32.162000
0
LINE
8
Layer 1
10
-88.900000
20
32.162000
11
-88.900000
21
68.674000
0
LINE
8
Layer 1
10
-88.900000
20
68.674000
11
-79.505000
21
68.674000
0
LINE
8
Layer 1
10
-79.505000
20
68.674000
11
-76.200000
21
68.674000
0
LINE
8
Layer 1
10
-76.200000
20
68.674000
11
-72.896000
21
68.674000
0
LINE
8
Layer 1
10
-72.896000
20
68.674000
11
-47.755000
21
68.674000
0
LINE
8
Layer 1
10
-47.755000
20
68.674000
11
-41.275000
21
68.674000
0
LINE
8
Layer 1
10
-41.275000
20
68.674000
11
-41.146000
21
68.674000
0
LINE
8
Layer 1
10
-41.146000
20
68.674000
11
-28.575000
21
68.674000
0
LINE
8
Layer 1
10
-28.575000
20
68.674000
11
28.575000
21
68.674000
0
LINE
8
Layer 1
10
28.575000
20
68.674000
11
41.146000
21
68.674000
0
LINE
8
Layer 1
10
41.146000
20
68.674000
11
41.275000
21
68.674000
0
LINE
8
Layer 1
10
41.275000
20
68.674000
11
47.755000
21
68.674000
0
LINE
8
Layer 1
10
47.755000
20
68.674000
11
72.896000
21
68.674000
0
LINE
8
Layer 1
10
72.896000
20
68.674000
11
76.200000
21
68.674000
0
LINE
8
Layer 1
10
76.200000
20
68.674000
11
79.505000
21
68.674000
0
LINE
8
Layer 1
10
79.505000
20
68.674000
11
88.900000
21
68.674000
0
LINE
8
Layer 1
10
88.900000
20
68.674000
11
88.900000
21
48.034000
0
LINE
8
Layer 1
10
88.900000
20
48.034000
11
88.900000
21
32.162000
0
LINE
8
Layer 1
10
78.873000
20
53.281000
11
78.276000
21
53.878000
0
LINE
8
Layer 1
10
78.276000
20
53.878000
11
78.142000
21
54.012000
0
LINE
8
Layer 1
10
78.142000
20
54.012000
11
77.221000
21
54.482000
0
LINE
8
Layer 1
10
77.221000
20
54.482000
11
76.200000
21
54.643000
0
LINE
8
Layer 1
10
76.200000
20
54.643000
11
75.179000
21
54.482000
0
LINE
8
Layer 1
10
75.179000
20
54.482000
11
74.258000
21
54.012000
0
LINE
8
Layer 1
10
74.258000
20
54.012000
11
74.124000
21
53.878000
0
LINE
8
Layer 1
10
74.124000
20
53.878000
11
73.728000
21
53.482000
0
LINE
8
Layer 1
10
73.728000
20
53.482000
11
73.527000
21
53.281000
0
LINE
8
Layer 1
10
73.527000
20
53.281000
11
73.057000
21
52.360000
0
LINE
8
Layer 1
10
73.057000
20
52.360000
11
72.896000
21
51.339000
0
LINE
8
Layer 1
10
72.896000
20
51.339000
11
73.057000
21
50.318000
0
LINE
8
Layer 1
10
73.057000
20
50.318000
11
73.527000
21
49.397000
0
LINE
8
Layer 1
10
73.527000
20
49.397000
11
73.728000
21
49.196000
0
LINE
8
Layer 1
10
73.728000
20
49.196000
11
74.258000
21
48.666000
0
LINE
8
Layer 1
10
74.258000
20
48.666000
11
75.179000
21
48.196000
0
LINE
8
Layer 1
10
75.179000
20
48.196000
11
76.200000
21
48.034000
0
LINE
8
Layer 1
10
76.200000
20
48.034000
11
77.221000
21
48.196000
0
LINE
8
Layer 1
10
77.221000
20
48.196000
11
78.142000
21
48.666000
0
LINE
8
Layer 1
10
78.142000
20
48.666000
11
78.873000
21
49.397000
0
LINE
8
Layer 1
10
78.873000
20
49.397000
11
79.343000
21
50.318000
0
LINE
8
Layer 1
10
79.343000
20
50.318000
11
79.505000
21
51.339000
0
LINE
8
Layer 1
10
79.505000
20
51.339000
11
79.343000
21
52.360000
0
LINE
8
Layer 1
10
79.343000
20
52.360000
11
78.873000
21
53.281000
0
LINE
8
Layer 1
10
-78.873000
20
53.281000
11
-79.343000
21
52.360000
0
LINE
8
Layer 1
10
-79.343000
20
52.360000
11
-79.505000
21
51.339000
0
LINE
8
Layer 1
10
-79.505000
20
51.339000
11
-79.343000
21
50.318000
0
LINE
8
Layer 1
10
-79.343000
20
50.318000
11
-78.873000
21
49.397000
0
LINE
8
Layer 1
10
-78.873000
20
49.397000
11
-78.142000
21
48.666000
0
LINE
8
Layer 1
10
-78.142000
20
48.666000
11
-77.221000
21
48.196000
0
LINE
8
Layer 1
10
-77.221000
20
48.196000
11
-76.200000
21
48.034000
0
LINE
8
Layer 1
10
-76.200000
20
48.034000
11
-75.179000
21
48.196000
0
LINE
8
Layer 1
10
-75.179000
20
48.196000
11
-74.258000
21
48.666000
0
LINE
8
Layer 1
10
-74.258000
20
48.666000
11
-73.728000
21
49.196000
0
LINE
8
Layer 1
10
-73.728000
20
49.196000
11
-73.527000
21
49.397000
0
LINE
8
Layer 1
10
-73.527000
20
49.397000
11
-73.057000
21
50.318000
0
LINE
8
Layer 1
10
-73.057000
20
50.318000
11
-72.896000
21
51.339000
0
LINE
8
Layer 1
10
-72.896000
20
51.339000
11
-73.057000
21
52.360000
0
LINE
8
Layer 1
10
-73.057000
20
52.360000
11
-73.527000
21
53.281000
0
LINE
8
Layer 1
10
-73.527000
20
53.281000
11
-73.728000
21
53.482000
0
LINE
8
Layer 1
10
-73.728000
20
53.482000
11
-74.124000
21
53.878000
0
LINE
8
Layer 1
10
-74.124000
20
53.878000
11
-74.258000
21
54.012000
0
LINE
8
Layer 1
10
-74.258000
20
54.012000
11
-75.179000
21
54.482000
0
LINE
8
Layer 1
10
-75.179000
20
54.482000
11
-76.200000
21
54.643000
0
LINE
8
Layer 1
10
-76.200000
20
54.643000
11
-77.221000
21
54.482000
0
LINE
8
Layer 1
10
-77.221000
20
54.482000
11
-78.142000
21
54.012000
0
LINE
8
Layer 1
10
-78.142000
20
54.012000
11
-78.276000
21
53.878000
0
LINE
8
Layer 1
10
-78.276000
20
53.878000
11
-78.873000
21
53.281000
0
LINE
8
Layer 1
10
-47.123000
20
53.154000
11
-47.593000
21
52.233000
0
LINE
8
Layer 1
10
-47.593000
20
52.233000
11
-47.755000
21
51.212000
0
LINE
8
Layer 1
10
-47.755000
20
51.212000
11
-47.593000
21
50.191000
0
LINE
8
Layer 1
10
-47.593000
20
50.191000
11
-47.123000
21
49.270000
0
LINE
8
Layer 1
10
-47.123000
20
49.270000
11
-46.392000
21
48.539000
0
LINE
8
Layer 1
10
-46.392000
20
48.539000
11
-45.471000
21
48.069000
0
LINE
8
Layer 1
10
-45.471000
20
48.069000
11
-45.250400
21
48.034000
0
LINE
8
Layer 1
10
-45.250400
20
48.034000
11
-45.056000
21
48.003200
0
LINE
8
Layer 1
10
-45.056000
20
48.003200
11
-44.450000
21
47.907000
0
LINE
8
Layer 1
10
-44.450000
20
47.907000
11
-43.649600
21
48.034000
0
LINE
8
Layer 1
10
-43.649600
20
48.034000
11
-43.429000
21
48.069000
0
LINE
8
Layer 1
10
-43.429000
20
48.069000
11
-42.508000
21
48.539000
0
LINE
8
Layer 1
10
-42.508000
20
48.539000
11
-41.777000
21
49.270000
0
LINE
8
Layer 1
10
-41.777000
20
49.270000
11
-41.307000
21
50.191000
0
LINE
8
Layer 1
10
-41.307000
20
50.191000
11
-41.275000
21
50.393900
0
LINE
8
Layer 1
10
-41.275000
20
50.393900
11
-41.146000
21
51.212000
0
LINE
8
Layer 1
10
-41.146000
20
51.212000
11
-41.275000
21
52.030100
0
LINE
8
Layer 1
10
-41.275000
20
52.030100
11
-41.307000
21
52.233000
0
LINE
8
Layer 1
10
-41.307000
20
52.233000
11
-41.777000
21
53.154000
0
LINE
8
Layer 1
10
-41.777000
20
53.154000
11
-42.501000
21
53.878000
0
LINE
8
Layer 1
10
-42.501000
20
53.878000
11
-42.508000
21
53.885000
0
LINE
8
Layer 1
10
-42.508000
20
53.885000
11
-43.429000
21
54.355000
0
LINE
8
Layer 1
10
-43.429000
20
54.355000
11
-44.450000
21
54.516000
0
LINE
8
Layer 1
10
-44.450000
20
54.516000
11
-45.471000
21
54.355000
0
LINE
8
Layer 1
10
-45.471000
20
54.355000
11
-46.392000
21
53.885000
0
LINE
8
Layer 1
10
-46.392000
20
53.885000
11
-46.399000
21
53.878000
0
LINE
8
Layer 1
10
-46.399000
20
53.878000
11
-47.123000
21
53.154000
0
LINE
8
Layer 1
10
-66.774200
20
12.918000
11
-66.643000
21
12.091000
0
LINE
8
Layer 1
10
-66.643000
20
12.091000
11
-66.173000
21
11.170000
0
LINE
8
Layer 1
10
-66.173000
20
11.170000
11
-65.442000
21
10.439000
0
LINE
8
Layer 1
10
-65.442000
20
10.439000
11
-64.521000
21
9.969000
0
LINE
8
Layer 1
10
-64.521000
20
9.969000
11
-63.500000
21
9.807000
0
LINE
8
Layer 1
10
-63.500000
20
9.807000
11
-62.479000
21
9.969000
0
LINE
8
Layer 1
10
-62.479000
20
9.969000
11
-61.558000
21
10.439000
0
LINE
8
Layer 1
10
-61.558000
20
10.439000
11
-60.827000
21
11.170000
0
LINE
8
Layer 1
10
-60.827000
20
11.170000
11
-60.357000
21
12.091000
0
LINE
8
Layer 1
10
-60.357000
20
12.091000
11
-60.226600
21
12.918000
0
LINE
8
Layer 1
10
-60.226600
20
12.918000
11
-60.196000
21
13.112000
0
LINE
8
Layer 1
10
-60.196000
20
13.112000
11
-60.357000
21
14.133000
0
LINE
8
Layer 1
10
-60.357000
20
14.133000
11
-60.827000
21
15.054000
0
LINE
8
Layer 1
10
-60.827000
20
15.054000
11
-61.558000
21
15.785000
0
LINE
8
Layer 1
10
-61.558000
20
15.785000
11
-62.479000
21
16.255000
0
LINE
8
Layer 1
10
-62.479000
20
16.255000
11
-63.500000
21
16.416000
0
LINE
8
Layer 1
10
-63.500000
20
16.416000
11
-64.521000
21
16.255000
0
LINE
8
Layer 1
10
-64.521000
20
16.255000
11
-65.442000
21
15.785000
0
LINE
8
Layer 1
10
-65.442000
20
15.785000
11
-66.173000
21
15.054000
0
LINE
8
Layer 1
10
-66.173000
20
15.054000
11
-66.643000
21
14.133000
0
LINE
8
Layer 1
10
-66.643000
20
14.133000
11
-66.805000
21
13.112000
0
LINE
8
Layer 1
10
-66.805000
20
13.112000
11
-66.774200
21
12.918000
0
LINE
8
Layer 1
10
41.275000
20
52.030100
11
41.146000
21
51.212000
0
LINE
8
Layer 1
10
41.146000
20
51.212000
11
41.275000
21
50.393900
0
LINE
8
Layer 1
10
41.275000
20
50.393900
11
41.307000
21
50.191000
0
LINE
8
Layer 1
10
41.307000
20
50.191000
11
41.777000
21
49.270000
0
LINE
8
Layer 1
10
41.777000
20
49.270000
11
42.508000
21
48.539000
0
LINE
8
Layer 1
10
42.508000
20
48.539000
11
43.429000
21
48.069000
0
LINE
8
Layer 1
10
43.429000
20
48.069000
11
44.450000
21
47.907000
0
LINE
8
Layer 1
10
44.450000
20
47.907000
11
45.056000
21
48.003200
0
LINE
8
Layer 1
10
45.056000
20
48.003200
11
45.471000
21
48.069000
0
LINE
8
Layer 1
10
45.471000
20
48.069000
11
46.392000
21
48.539000
0
LINE
8
Layer 1
10
46.392000
20
48.539000
11
47.123000
21
49.270000
0
LINE
8
Layer 1
10
47.123000
20
49.270000
11
47.593000
21
50.191000
0
LINE
8
Layer 1
10
47.593000
20
50.191000
11
47.755000
21
51.212000
0
LINE
8
Layer 1
10
47.755000
20
51.212000
11
47.593000
21
52.233000
0
LINE
8
Layer 1
10
47.593000
20
52.233000
11
47.123000
21
53.154000
0
LINE
8
Layer 1
10
47.123000
20
53.154000
11
46.399000
21
53.878000
0
LINE
8
Layer 1
10
46.399000
20
53.878000
11
46.392000
21
53.885000
0
LINE
8
Layer 1
10
46.392000
20
53.885000
11
45.471000
21
54.355000
0
LINE
8
Layer 1
10
45.471000
20
54.355000
11
44.450000
21
54.516000
0
LINE
8
Layer 1
10
44.450000
20
54.516000
11
43.429000
21
54.355000
0
LINE
8
Layer 1
10
43.429000
20
54.355000
11
42.508000
21
53.885000
0
LINE
8
Layer 1
10
42.508000
20
53.885000
11
42.501000
21
53.878000
0
LINE
8
Layer 1
10
42.501000
20
53.878000
11
41.777000
21
53.154000
0
LINE
8
Layer 1
10
41.777000
20
53.154000
11
41.307000
21
52.233000
0
LINE
8
Layer 1
10
41.307000
20
52.233000
11
41.275000
21
52.030100
0
LINE
8
Layer 1
10
62.479000
20
9.969000
11
61.558000
21
10.439000
0
LINE
8
Layer 1
10
61.558000
20
10.439000
11
60.827000
21
11.170000
0
LINE
8
Layer 1
10
60.827000
20
11.170000
11
60.357000
21
12.091000
0
LINE
8
Layer 1
10
60.357000
20
12.091000
11
60.226600
21
12.918000
0
LINE
8
Layer 1
10
60.226600
20
12.918000
11
60.196000
21
13.112000
0
LINE
8
Layer 1
10
60.196000
20
13.112000
11
60.357000
21
14.133000
0
LINE
8
Layer 1
10
60.357000
20
14.133000
11
60.827000
21
15.054000
0
LINE
8
Layer 1
10
60.827000
20
15.054000
11
61.558000
21
15.785000
0
LINE
8
Layer 1
10
61.558000
20
15.785000
11
62.479000
21
16.255000
0
LINE
8
Layer 1
10
62.479000
20
16.255000
11
63.500000
21
16.416000
0
LINE
8
Layer 1
10
63.500000
20
16.416000
11
64.521000
21
16.255000
0
LINE
8
Layer 1
10
64.521000
20
16.255000
11
65.442000
21
15.785000
0
LINE
8
Layer 1
10
65.442000
20
15.785000
11
66.173000
21
15.054000
0
LINE
8
Layer 1
10
66.173000
20
15.054000
11
66.643000
21
14.133000
0
LINE
8
Layer 1
10
66.643000
20
14.133000
11
66.805000
21
13.112000
0
LINE
8
Layer 1
10
66.805000
20
13.112000
11
66.774200
21
12.918000
0
LINE
8
Layer 1
10
66.774200
20
12.918000
11
66.643000
21
12.091000
0
LINE
8
Layer 1
10
66.643000
20
12.091000
11
66.173000
21
11.170000
0
LINE
8
Layer 1
10
66.173000
20
11.170000
11
65.442000
21
10.439000
0
LINE
8
Layer 1
10
65.442000
20
10.439000
11
64.521000
21
9.969000
0
LINE
8
Layer 1
10
64.521000
20
9.969000
11
63.500000
21
9.807000
0
LINE
8
Layer 1
10
63.500000
20
9.807000
11
62.479000
21
9.969000
0
LINE
8
Layer 1
10
60.196000
20
9.807000
11
63.500000
21
9.807000
0
LINE
8
Layer 1
10
63.500000
20
9.807000
11
66.805000
21
9.807000
0
LINE
8
Layer 1
10
66.805000
20
9.807000
11
66.805000
21
12.918000
0
LINE
8
Layer 1
10
66.805000
20
12.918000
11
66.805000
21
13.112000
0
LINE
8
Layer 1
10
66.805000
20
13.112000
11
66.805000
21
16.416000
0
LINE
8
Layer 1
10
66.805000
20
16.416000
11
63.500000
21
16.416000
0
LINE
8
Layer 1
10
63.500000
20
16.416000
11
60.196000
21
16.416000
0
LINE
8
Layer 1
10
60.196000
20
16.416000
11
60.196000
21
13.112000
0
LINE
8
Layer 1
10
60.196000
20
13.112000
11
60.196000
21
9.807000
0
LINE
8
Layer 1
10
60.196000
20
9.807000
11
60.196000
21
9.807000
 0 
ENDSEC
 0 
EOF