  0
SECTION
  2
HEADER
  9
$ACADVER
  1
AC1003
  9
$EXTMIN
 10
-1.30930626041601E-15
 20
5.75
  9
$EXTMAX
 10
8
 20
0
  9
$INSUNITS
 70
1
  9
$INSBASE
 10
4
 20
2.875
999
Created with OMAX LAYOUT for Windows. (www.omax.com) 11/18/2023
  0
ENDSEC
  0
SECTION
  2
TABLES
  0
TABLE
  2
LAYER
 70
    10
  0
LAYER
  2
0
 70
     0
 62
     7
  6
CONTINUOUS
  0
LAYER
  2
1
 70
     0
 62
     7
  6
CONTINUOUS
  0
LAYER
  2
2
 70
     0
 62
     7
  6
CONTINUOUS
  0
LAYER
  2
3
 70
     0
 62
     7
  6
CONTINUOUS
  0
LAYER
  2
4
 70
     0
 62
     7
  6
CONTINUOUS
  0
LAYER
  2
5
 70
     0
 62
     7
  6
CONTINUOUS
  0
LAYER
  2
6
 70
     0
 62
     7
  6
CONTINUOUS
  0
LAYER
  2
7
 70
     0
 62
     7
  6
CONTINUOUS
  0
LAYER
  2
8
 70
     0
 62
     7
  6
CONTINUOUS
  0
LAYER
  2
9
 70
     0
 62
     7
  6
CONTINUOUS
  0
LAYER
  2
10
 70
     0
 62
     7
  6
CONTINUOUS
  0
LAYER
  2
11
 70
     0
 62
     7
  6
CONTINUOUS
  0
LAYER
  2
12
 70
     0
 62
     7
  6
CONTINUOUS
  0
LAYER
  2
13
 70
     0
 62
     7
  6
CONTINUOUS
  0
LAYER
  2
14
 70
     0
 62
     7
  6
CONTINUOUS
  0
LAYER
  2
15
 70
     0
 62
     7
  6
CONTINUOUS
  0
LAYER
  2
16
 70
     0
 62
     7
  6
CONTINUOUS
  0
LAYER
  2
17
 70
     0
 62
     7
  6
CONTINUOUS
  0
LAYER
  2
18
 70
     0
 62
     7
  6
CONTINUOUS
  0
LAYER
  2
19
 70
     0
 62
     7
  6
CONTINUOUS
  0
LAYER
  2
20
 70
     0
 62
     7
  6
CONTINUOUS
  0
LAYER
  2
21
 70
     0
 62
     7
  6
CONTINUOUS
  0
LAYER
  2
22
 70
     0
 62
     7
  6
CONTINUOUS
  0
LAYER
  2
23
 70
     0
 62
     7
  6
CONTINUOUS
  0
LAYER
  2
24
 70
     0
 62
     7
  6
CONTINUOUS
  0
LAYER
  2
25
 70
     0
 62
     7
  6
CONTINUOUS
  0
LAYER
  2
26
 70
     0
 62
     7
  6
CONTINUOUS
  0
LAYER
  2
27
 70
     0
 62
     7
  6
CONTINUOUS
  0
LAYER
  2
28
 70
     0
 62
     7
  6
CONTINUOUS
  0
LAYER
  2
29
 70
     0
 62
     7
  6
CONTINUOUS
  0
LAYER
  2
30
 70
     0
 62
     7
  6
CONTINUOUS
  0
LAYER
  2
31
 70
     0
 62
     7
  6
CONTINUOUS
  0
ENDTAB
  0
ENDSEC
  0
SECTION
  2
ENTITIES
  0
LINE
  8
3
  6
CONTINUOUS
 62
3
 10
7.625
 20
4.59227382683393E-17
 30
0.0
 11
0.374999999999999
 21
3.74999999999999E-25
 31
0.0
  0
LINE
  8
3
  6
CONTINUOUS
 62
3
 10
-1.30930626041601E-15
 20
0.374999999999999
 30
0.0
 11
0
 21
1.5
 31
0.0
  0
LINE
  8
3
  6
CONTINUOUS
 62
3
 10
8
 20
0.375000000000001
 30
0.0
 11
8
 21
1.5
 31
0.0
  0
ARC
  8
3
  6
CONTINUOUS
 62
3
 10
2.5
 20
1.75
 30
0.0
 40
0.25
 50
90
 51
270
  0
ARC
  8
3
  6
CONTINUOUS
 62
3
 10
5.5
 20
1.75
 30
0.0
 40
0.25
 50
270
 51
90
  0
LINE
  8
3
  6
CONTINUOUS
 62
3
 10
4.8125
 20
2.1875
 30
0.0
 11
4.8125
 21
1.5
 31
0.0
  0
ARC
  8
3
  6
CONTINUOUS
 62
3
 10
4.75
 20
2.1875
 30
0.0
 40
0.0624999999999999
 50
1.0813885916976E-13
 51
89.9999999999999
  0
LINE
  8
3
  6
CONTINUOUS
 62
3
 10
2.875
 20
2
 30
0.0
 11
2.5
 21
2
 31
0.0
  0
LINE
  8
3
  6
CONTINUOUS
 62
3
 10
5.125
 20
2
 30
0.0
 11
5.5
 21
2
 31
0.0
  0
LINE
  8
3
  6
CONTINUOUS
 62
3
 10
0
 20
1.5
 30
0.0
 11
1.75
 21
5.75
 31
0.0
  0
LINE
  8
3
  6
CONTINUOUS
 62
3
 10
2.875
 20
2
 30
0.0
 11
2.875
 21
5.75
 31
0.0
  0
LINE
  8
3
  6
CONTINUOUS
 62
3
 10
1.75
 20
5.75
 30
0.0
 11
2.875
 21
5.75
 31
0.0
  0
LINE
  8
3
  6
CONTINUOUS
 62
3
 10
5.125
 20
2
 30
0.0
 11
5.125
 21
5.75
 31
0.0
  0
LINE
  8
3
  6
CONTINUOUS
 62
3
 10
5.125
 20
5.75
 30
0.0
 11
6.25
 21
5.75
 31
0.0
  0
LINE
  8
3
  6
CONTINUOUS
 62
3
 10
6.25
 20
5.75
 30
0.0
 11
8
 21
1.5
 31
0.0
  0
LINE
  8
3
  6
CONTINUOUS
 62
3
 10
4.4375
 20
2.1875
 30
0.0
 11
4.4375
 21
1.5
 31
0.0
  0
LINE
  8
3
  6
CONTINUOUS
 62
3
 10
4.5
 20
2.25
 30
0.0
 11
4.75
 21
2.25
 31
0.0
  0
ARC
  8
3
  6
CONTINUOUS
 62
3
 10
4.5
 20
2.1875
 30
0.0
 40
0.0624999999999999
 50
89.9999999999997
 51
180
  0
LINE
  8
3
  6
CONTINUOUS
 62
3
 10
3.1875
 20
2.1875
 30
0.0
 11
3.1875
 21
1.5
 31
0.0
  0
ARC
  8
3
  6
CONTINUOUS
 62
3
 10
3.25
 20
2.1875
 30
0.0
 40
0.0624999999999999
 50
89.9999999999997
 51
180
  0
LINE
  8
3
  6
CONTINUOUS
 62
3
 10
3.5625
 20
2.1875
 30
0.0
 11
3.5625
 21
1.5
 31
0.0
  0
LINE
  8
3
  6
CONTINUOUS
 62
3
 10
3.5
 20
2.25
 30
0.0
 11
3.25
 21
2.25
 31
0.0
  0
ARC
  8
3
  6
CONTINUOUS
 62
3
 10
3.5
 20
2.1875
 30
0.0
 40
0.0624999999999999
 50
359.999999999999
 51
89.9999999999999
  0
LINE
  8
3
  6
CONTINUOUS
 62
3
 10
2.5
 20
1.5
 30
0.0
 11
3.1875
 21
1.5
 31
0.0
  0
LINE
  8
3
  6
CONTINUOUS
 62
3
 10
3.5625
 20
1.5
 30
0.0
 11
4.4375
 21
1.5
 31
0.0
  0
LINE
  8
3
  6
CONTINUOUS
 62
3
 10
4.8125
 20
1.5
 30
0.0
 11
5.5
 21
1.5
 31
0.0
  0
ARC
  8
3
  6
CONTINUOUS
 62
3
 10
0.375
 20
0.375
 30
0.0
 40
0.375
 50
180
 51
270
  0
ARC
  8
3
  6
CONTINUOUS
 62
3
 10
7.625
 20
0.375
 30
0.0
 40
0.375
 50
269.999999999999
 51
0
  0
ARC
  8
5
  6
CONTINUOUS
 62
5
 10
7.25
 20
0.750000000000001
 30
0.0
 40
0.125
 50
359.999999999999
 51
180
  0
ARC
  8
5
  6
CONTINUOUS
 62
5
 10
7.25
 20
0.749999999999999
 30
0.0
 40
0.125
 50
179.999999999999
 51
359.999999999999
  0
ARC
  8
5
  6
CONTINUOUS
 62
5
 10
6
 20
0.750000000000001
 30
0.0
 40
0.125
 50
359.999999999999
 51
180
  0
ARC
  8
5
  6
CONTINUOUS
 62
5
 10
6
 20
0.749999999999999
 30
0.0
 40
0.125
 50
179.999999999999
 51
359.999999999999
  0
ARC
  8
5
  6
CONTINUOUS
 62
5
 10
4.75
 20
0.750000000000001
 30
0.0
 40
0.125
 50
359.999999999999
 51
180
  0
ARC
  8
5
  6
CONTINUOUS
 62
5
 10
4.75
 20
0.749999999999999
 30
0.0
 40
0.125
 50
179.999999999999
 51
359.999999999999
  0
ARC
  8
5
  6
CONTINUOUS
 62
5
 10
3.25
 20
0.750000000000001
 30
0.0
 40
0.125
 50
359.999999999999
 51
180
  0
ARC
  8
5
  6
CONTINUOUS
 62
5
 10
3.25
 20
0.749999999999999
 30
0.0
 40
0.125
 50
179.999999999999
 51
359.999999999999
  0
ARC
  8
5
  6
CONTINUOUS
 62
5
 10
2
 20
0.749999999999999
 30
0.0
 40
0.125
 50
179.999999999999
 51
359.999999999999
  0
ARC
  8
5
  6
CONTINUOUS
 62
5
 10
2
 20
0.750000000000001
 30
0.0
 40
0.125
 50
359.999999999999
 51
180
  0
ARC
  8
5
  6
CONTINUOUS
 62
5
 10
0.75
 20
0.750000000000001
 30
0.0
 40
0.125
 50
359.999999999999
 51
180
  0
ARC
  8
5
  6
CONTINUOUS
 62
5
 10
0.75
 20
0.749999999999999
 30
0.0
 40
0.125
 50
179.999999999999
 51
359.999999999999
  0
ENDSEC
  0
EOF
